<?xml version="1.0" encoding="UTF-8" standalone="no"?><!DOCTYPE svg PUBLIC "-//W3C//DTD SVG 1.1//EN" "http://www.w3.org/Graphics/SVG/1.1/DTD/svg11.dtd"><svg width="100%" height="100%" viewBox="0 0 780 780" version="1.1" xmlns="http://www.w3.org/2000/svg" xmlns:xlink="http://www.w3.org/1999/xlink" xml:space="preserve" xmlns:serif="http://www.serif.com/" style="fill-rule:evenodd;clip-rule:evenodd;stroke-linejoin:round;stroke-miterlimit:2;"><rect id="Tavola-da-disegno1" serif:id="Tavola da disegno1" x="0" y="0" width="780" height="780" style="fill:none;"/><g id="Sfondo"><path d="M467.493,580.796c0.532,0.066 3.858,-1.785 7.645,3.957c4.787,7.26 5.065,6.933 61.792,89.427c55.411,80.581 56.77,81.011 55.488,82.205c-0.164,0.152 -521.283,-0.063 -577.917,0.096c-0.494,0.001 -5.778,0.016 -6.098,-0.938c-1.692,-5.054 1.34,-117.769 28.516,-182.86c2.856,-6.84 23.357,-55.943 44.431,-81.3c2.347,-2.823 6.731,-10.366 25.382,-31.687c22.811,-26.077 56.471,-53.955 61.7,-58.287c15.438,-12.786 16.386,-11.442 31.966,-24.046c0.606,-0.491 27.46,-19.729 41.088,-26.881c1.794,-0.942 0.986,-2.646 -0.982,-2.261c-7.347,1.437 -54.554,10.668 -92.645,-13.174c-2.203,-1.379 -0.071,-2.348 26.531,-18.754c12.059,-7.437 49.597,-22.925 83.106,-19.746c51.005,4.838 81.369,21.063 115.849,6.571c39.533,-16.616 21.935,-78.968 23.645,-80.461c1.924,-1.679 47.467,10.68 76.4,23.093c59.689,25.608 75.64,48.754 80.94,99.77c1.761,16.954 -2.672,40.414 -3.326,43.872c-0.81,4.285 1.069,3.757 10.288,11.369c3.092,2.553 50.438,39.259 93.016,72.001c3.168,2.436 5.118,2.247 3.406,5.835c-11.11,23.289 -27.264,80.685 -87.115,94.277c-6.292,1.429 -33.471,7.601 -78.89,-16.77c-7.585,-4.07 -7.582,-4.564 -16.209,-4.573c-47.21,-0.053 -121.805,-1.274 -169.691,-52.31c-18.955,-20.201 -21.368,-49.069 -21.754,-53.687c-0.905,-10.823 -0.486,-11.262 -1.396,-11.386c-3.108,-0.422 -9.225,25.447 -9.775,32.381c-3.241,40.884 17.645,62.165 36.569,77.028c12.435,9.767 36.545,19.08 39.888,20.371c46.475,17.952 111.613,16.823 118.151,16.867Z" style="fill:#4beacf;fill-opacity:1;"/><path d="M380.971,246.499c0.056,4.241 -1.108,55.466 -44.555,44.317c-0.182,-0.047 -187.924,-57.834 -204.767,-65.639c-91.103,-42.218 -71.19,-145.866 16.544,-203.145c0.472,-0.308 12.953,-9.665 9.934,-4.653c-15.184,25.205 -46.871,95.214 -13.473,128.97c14.915,15.075 30.005,18.116 120.72,42.606c8.805,2.377 100.184,27.047 110.179,29.271c4.89,1.088 4.152,2.354 4.927,7.277c0.465,2.956 0.485,20.166 0.491,20.997Z" style="fill:#4beacf;fill-opacity:1;"/><path d="M695.484,383.242c-31.246,0.307 -42.826,-7.015 -112.026,-27.564c-10.191,-3.026 -12.224,-3.415 -12.292,-5.124c-0.071,-1.789 1.445,-24.989 -6.571,-47.09c-9.339,-25.75 -23.106,-36.118 -14.037,-31.177c0.04,0.022 111.989,42.357 127.896,45.425c37.365,7.207 55.328,-26.697 57.79,-31.345c14.257,-26.909 20.103,-66.501 20.149,-66.918c0.665,-5.942 2.149,1.497 3.997,7.09c10.091,30.55 22.072,76.745 -6.372,122.649c-15.837,25.558 -43.851,31.683 -48.416,32.681c-4.996,1.092 -4.998,0.707 -10.118,1.373Z" style="fill:#4ceacf;fill-opacity:1;"/></g></svg>